<svg width="50" height="50" viewBox="0 0 50 50" fill="none" xmlns="http://www.w3.org/2000/svg">
<circle cx="25" cy="25" r="25" fill="#00ADC9"/>
<path d="M37.31 19.1105L26.4139 14.2007C25.8201 13.9331 25.1795 13.9331 24.5861 14.2007L13.6896 19.1105C12.7701 19.5247 12.7701 21.3082 13.6896 21.7224L15.5893 22.5784C15.1725 23.334 14.9162 24.2559 14.8908 25.2653C14.5146 25.5816 14.2498 26.1522 14.2498 26.8334C14.2498 27.451 14.4717 27.9706 14.7912 28.3029L13.7939 34.8845C13.7072 35.4569 14.0041 36 14.4037 36H16.5955C16.9955 36 17.2924 35.4569 17.2057 34.8845L16.2084 28.3029C16.5279 27.9706 16.7498 27.451 16.7498 26.8334C16.7498 26.1705 16.4971 25.616 16.1381 25.294C16.1678 24.4335 16.4678 23.6726 16.9463 23.1902L24.5857 26.6329C24.9396 26.7921 25.6186 26.9909 26.4135 26.6329L37.31 21.723C38.2299 21.3082 38.2299 19.5253 37.31 19.1105ZM26.7807 28.3854C25.6662 28.8873 24.7166 28.61 24.2186 28.3854L18.5537 25.8331L17.9998 32.3334C17.9998 34.3586 21.3576 36 25.4998 36C29.642 36 32.9998 34.3586 32.9998 32.3334L32.4459 25.8325L26.7807 28.3854Z" fill="black"/>
</svg>
