<svg width="50" height="38" viewBox="0 0 50 38" fill="none" xmlns="http://www.w3.org/2000/svg">
<path d="M49.0527 12.3828C49.4336 12.0801 50 12.3633 50 12.8418V32.8125C50 35.4004 47.9004 37.5 45.3125 37.5H4.6875C2.09961 37.5 0 35.4004 0 32.8125V12.8516C0 12.3633 0.556641 12.0898 0.947266 12.3926C3.13477 14.0918 6.03516 16.25 15.9961 23.4863C18.0566 24.9902 21.5332 28.1543 25 28.1348C28.4863 28.1641 32.0312 24.9316 34.0137 23.4863C43.9746 16.25 46.8652 14.082 49.0527 12.3828ZM25 25C27.2656 25.0391 30.5273 22.1484 32.168 20.957C45.127 11.5527 46.1133 10.7324 49.1016 8.38867C49.668 7.94922 50 7.26562 50 6.54297V4.6875C50 2.09961 47.9004 0 45.3125 0H4.6875C2.09961 0 0 2.09961 0 4.6875V6.54297C0 7.26562 0.332031 7.93945 0.898438 8.38867C3.88672 10.7227 4.87305 11.5527 17.832 20.957C19.4727 22.1484 22.7344 25.0391 25 25Z" fill="#00ADC9"/>
</svg>
