<svg width="75" height="75" viewBox="0 0 75 75" fill="none" xmlns="http://www.w3.org/2000/svg">
<path d="M56.2527 25.0049C61.2248 25.0049 65.9933 23.6877 69.5091 21.343C73.0248 18.9983 75 15.8183 75 12.5024C75 9.18659 73.0248 6.00654 69.5091 3.66188C65.9933 1.31722 61.2248 0 56.2527 0L18.7582 0C13.7891 0 9.02343 1.31645 5.5097 3.65973C1.99596 6.00302 0.0219702 9.18121 0.0219702 12.4951C0.0219702 15.809 1.99596 18.9872 5.5097 21.3305C9.02343 23.6738 13.7891 24.9902 18.7582 24.9902C13.7862 24.9902 9.01772 26.3075 5.50193 28.6521C1.98614 30.9968 0.0109878 34.1768 0.0109878 37.4927C0.0109878 40.8085 1.98614 43.9886 5.50193 46.3332C9.01772 48.6779 13.7862 49.9951 18.7582 49.9951C15.0504 49.9937 11.4252 50.7255 8.34098 52.0981C5.2568 53.4707 2.8522 55.4223 1.43126 57.7063C0.010322 59.9903 -0.363144 62.504 0.358092 64.9295C1.07933 67.355 2.86287 69.5834 5.48319 71.3329C8.1035 73.0825 11.4429 74.2745 15.0791 74.7583C18.7153 75.2422 22.4849 74.996 25.9114 74.0511C29.3378 73.1062 32.2671 71.5048 34.3289 69.4496C36.3907 67.3944 37.4923 64.9776 37.4945 62.5049V25.0049H56.2527ZM56.2527 25.0049C52.5471 25.0049 48.9246 25.7377 45.8434 27.1107C42.7623 28.4837 40.3608 30.4351 38.9427 32.7183C37.5246 35.0015 37.1535 37.5139 37.8765 39.9377C38.5994 42.3615 40.3839 44.5879 43.0042 46.3354C45.6245 48.0829 48.963 49.2729 52.5975 49.755C56.232 50.2372 59.9992 49.9897 63.4228 49.044C66.8464 48.0983 69.7726 46.4967 71.8314 44.4419C73.8902 42.3871 74.989 39.9713 74.989 37.5C74.9884 34.1862 73.0143 31.0083 69.5006 28.665C65.987 26.3218 61.2217 25.0053 56.2527 25.0049Z" fill="#00ADC9"/>
</svg>
