<svg width="50" height="50" viewBox="0 0 50 50" fill="none" xmlns="http://www.w3.org/2000/svg">
<circle cx="25" cy="25" r="25" fill="#00ADC9"/>
<path d="M27.625 28.9286C27.625 29.3627 27.2754 29.7143 26.8438 29.7143H22.1562C21.7246 29.7143 21.375 29.3627 21.375 28.9286V26.5714H12V33.6429C12 34.9 13.0938 36 14.3438 36H34.6562C35.9062 36 37 34.9 37 33.6429V26.5714H27.625V28.9286ZM34.6562 18.7143H30.75V16.3571C30.75 15.1 29.6562 14 28.4062 14H20.5938C19.3438 14 18.25 15.1 18.25 16.3571V18.7143H14.3438C13.0938 18.7143 12 19.8143 12 21.0714V25H37V21.0714C37 19.8143 35.9062 18.7143 34.6562 18.7143ZM27.625 18.7143H21.375V17.1429H27.625V18.7143Z" fill="#181821"/>
</svg>
