<svg width="75" height="75" viewBox="0 0 75 75" fill="none" xmlns="http://www.w3.org/2000/svg">
<path d="M66.9643 0H8.03571C3.59933 0 0 3.59933 0 8.03571V66.9643C0 71.4007 3.59933 75 8.03571 75H66.9643C71.4007 75 75 71.4007 75 66.9643V8.03571C75 3.59933 71.4007 0 66.9643 0ZM40.8147 58.4933C40.8147 65.7924 36.529 69.1239 30.2846 69.1239C24.6429 69.1239 21.3783 66.2109 19.7042 62.6786L25.4464 59.2132C26.5513 61.1719 27.5558 62.8292 29.9833 62.8292C32.2935 62.8292 33.7667 61.9252 33.7667 58.3929V34.4364H40.8147V58.4933ZM57.4888 69.1239C50.9431 69.1239 46.7076 66.01 44.6484 61.9252L50.3906 58.6105C51.8973 61.0714 53.8728 62.8962 57.3382 62.8962C60.2511 62.8962 62.1261 61.4397 62.1261 59.4141C62.1261 57.0033 60.2176 56.1496 56.9866 54.7266L55.2288 53.9732C50.1395 51.8136 46.7746 49.0848 46.7746 43.3426C46.7746 38.0525 50.8092 34.0346 57.0871 34.0346C61.5737 34.0346 64.7879 35.5915 67.0982 39.6763L61.6071 43.192C60.4018 41.0324 59.096 40.1786 57.0703 40.1786C55.0112 40.1786 53.7054 41.4844 53.7054 43.192C53.7054 45.3013 55.0112 46.1551 58.0413 47.4777L59.7991 48.231C65.7924 50.7924 69.1574 53.4208 69.1574 59.3136C69.1574 65.6417 64.1685 69.1239 57.4888 69.1239Z" fill="#00ADC9"/>
</svg>
