<svg width="75" height="75" viewBox="0 0 75 75" fill="none" xmlns="http://www.w3.org/2000/svg">
<path d="M37.4832 75C36.3585 75 35.2171 74.7321 34.2267 74.2261L23.8697 68.794C22.3254 68.0201 23.0808 67.7523 23.5844 67.6034C25.6491 66.9635 26.0687 66.8295 28.2677 65.7134C28.5027 65.5943 28.8048 65.639 29.0398 65.7729L36.9964 69.9549C37.2818 70.1037 37.6846 70.1037 37.9532 69.9549L68.957 54.0902C69.2424 53.9414 69.427 53.6437 69.427 53.3461V21.6167C69.427 21.3042 69.2424 21.0214 68.9402 20.8577L37.9532 5.00794C37.6679 4.85911 37.2818 4.85911 36.9964 5.00794L6.02619 20.8726C5.72404 21.0214 5.53939 21.3191 5.53939 21.6316V53.3461C5.53939 53.6437 5.72404 53.9414 6.02619 54.0753L14.5199 58.421C19.1361 60.4599 21.9561 58.0638 21.9561 55.638V24.3253C21.9561 23.8789 22.359 23.5366 22.8626 23.5366H26.7905C27.2773 23.5366 27.697 23.8789 27.697 24.3253V55.6528C27.697 61.0998 24.3397 64.2251 18.515 64.2251C16.7189 64.2251 15.3089 64.2251 11.3809 62.4988L3.25649 58.3466C1.24217 57.3197 0 55.3998 0 53.3312V21.6167C0 19.563 1.24217 17.6282 3.25649 16.6013L34.2267 0.73668C36.1907 -0.24556 38.7925 -0.24556 40.7397 0.73668L71.7435 16.6162C73.7578 17.6431 75 19.563 75 21.6316V53.3461C75 55.3998 73.7578 57.3197 71.7435 58.3615L40.7397 74.2261C39.7493 74.7321 38.6247 75 37.4832 75ZM62.5112 43.732C62.5112 37.7939 57.979 36.2164 48.4613 35.1002C38.8261 33.9691 37.8525 33.3887 37.8525 31.3945C37.8525 29.7425 38.675 27.5399 45.8091 27.5399C52.171 27.5399 54.521 28.7603 55.4946 32.5702C55.5786 32.9274 55.9478 33.1953 56.3675 33.1953H60.3961C60.6479 33.1953 60.8829 33.106 61.0508 32.9423C61.2187 32.7785 61.3026 32.5553 61.2858 32.3321C60.6647 25.7689 55.7464 22.718 45.8091 22.718C36.9628 22.718 31.692 26.0219 31.692 31.5731C31.692 37.5856 36.9461 39.2524 45.423 39.9965C55.5786 40.8746 56.3675 42.1991 56.3675 43.9701C56.3675 47.0359 53.581 48.3456 47.0513 48.3456C38.8429 48.3456 37.0468 46.515 36.4425 42.8986C36.3753 42.5117 36.006 42.2289 35.5528 42.2289H31.541C31.0374 42.2289 30.6513 42.5861 30.6513 43.0177C30.6513 47.6461 33.4881 53.1675 47.068 53.1675C56.8711 53.1526 62.5112 49.7148 62.5112 43.732Z" fill="#00ADC9"/>
</svg>
