<svg width="75" height="75" viewBox="0 0 75 75" fill="none" xmlns="http://www.w3.org/2000/svg">
<path d="M61.2598 24.3046C60.4688 24.0033 59.6777 23.7187 58.8867 23.4509C59.0186 22.8315 59.1357 22.2121 59.2529 21.5927C61.0547 11.6156 59.8682 3.59704 55.8691 0.952097C52.0166 -1.57567 45.7324 1.05254 39.375 7.38032C38.7451 7.99971 38.1299 8.65258 37.5439 9.30544C37.1484 8.8702 36.7383 8.43496 36.3281 8.01645C29.6631 1.25342 22.9834 -1.59241 18.9844 1.06928C15.1465 3.61379 14.0039 11.1636 15.6152 20.6051C15.7764 21.5425 15.9521 22.4632 16.1572 23.4007C15.2197 23.702 14.2969 24.0368 13.4326 24.3883C5.61035 27.4853 0 32.3734 0 37.4289C0 42.6519 5.97656 47.8916 14.1064 51.0722C14.7656 51.3233 15.4248 51.5744 16.0986 51.792C15.8789 52.7964 15.6885 53.7841 15.5127 54.8052C13.9746 64.096 15.1758 71.4617 19.0137 73.9895C22.9688 76.601 29.6191 73.9225 36.0938 67.4441C36.6064 66.9251 37.1191 66.3895 37.6318 65.8203C38.2764 66.5401 38.9502 67.2265 39.624 67.8961C45.8936 74.0564 52.0898 76.5507 55.9131 74.023C59.8682 71.4115 61.1572 63.4934 59.4873 53.8511C59.3555 53.1145 59.209 52.3612 59.0479 51.5911C59.5166 51.4405 59.9707 51.2731 60.4248 51.1057C68.877 47.9083 75 42.7356 75 37.4289C75 32.3567 69.2285 27.4351 61.2598 24.3046ZM41.4404 10.0922C46.8896 4.66842 51.9727 2.54241 54.2871 4.06577C56.7627 5.68957 57.7148 12.2517 56.1621 20.8729C56.0596 21.4421 55.957 21.9945 55.8252 22.5469C52.5732 21.7099 49.2773 21.1073 45.9668 20.7725C44.0625 17.6588 41.9824 14.679 39.7266 11.8834C40.2979 11.264 40.8545 10.6781 41.4404 10.0922ZM24.4922 46.1171C25.2393 47.5735 26.001 49.0299 26.8066 50.4528C24.5215 50.1682 22.251 49.7497 20.0098 49.1973C20.6543 46.7867 21.46 44.2924 22.3975 41.7479C23.0713 43.221 23.7598 44.6774 24.4922 46.1171ZM20.0537 25.9787C22.1631 25.443 24.4043 25.0077 26.7334 24.6729C25.957 26.0624 25.1953 27.4853 24.4775 28.9249C23.7598 30.3478 23.0566 31.8042 22.3975 33.2774C21.4746 30.7831 20.6982 28.339 20.0537 25.9787ZM24.0674 37.5126C25.0342 35.2025 26.0889 32.9426 27.2021 30.7161C28.3154 28.4897 29.5166 26.3302 30.7764 24.2042C32.9736 24.0201 35.2148 23.9196 37.5 23.9196C39.7852 23.9196 42.041 24.0201 44.2236 24.2042C45.4688 26.3135 46.6553 28.4729 47.7832 30.6827C48.9111 32.8924 49.9658 35.1523 50.9619 37.4457C49.9805 39.7558 48.9258 42.0325 47.7979 44.2757C46.6846 46.5021 45.498 48.6616 44.2529 50.8043C42.0703 50.9885 39.7998 51.0722 37.5 51.0722C35.2002 51.0722 32.9736 50.9885 30.8203 50.8378C29.5459 48.7118 28.3447 46.5356 27.2168 44.3092C26.0889 42.0827 25.0488 39.8228 24.0674 37.5126ZM50.5225 46.0836C51.2695 44.6105 51.9727 43.1206 52.6611 41.614C53.5986 44.0413 54.4189 46.5021 55.1367 49.0299C52.8662 49.6158 50.5664 50.0678 48.252 50.3691C49.043 48.9629 49.79 47.5233 50.5225 46.0836ZM52.6318 33.2774C51.9434 31.8042 51.2402 30.3311 50.5078 28.8915C49.79 27.4685 49.043 26.0624 48.2666 24.6729C50.625 25.0077 52.8809 25.4597 54.9902 26.0121C54.3164 28.4897 53.5254 30.9003 52.6318 33.2774ZM37.5293 14.4447C39.0674 16.3531 40.5176 18.3619 41.8652 20.4377C38.9648 20.287 36.0498 20.287 33.1494 20.4377C34.585 18.2782 36.0645 16.2694 37.5293 14.4447ZM20.5371 4.18295C22.998 2.54241 28.4619 4.88604 34.2188 10.7116C34.585 11.0799 34.9512 11.4817 35.332 11.8834C33.0615 14.679 30.9668 17.6588 29.0479 20.7725C25.7373 21.1073 22.4561 21.6932 19.2041 22.5134C19.0137 21.6597 18.8525 20.7892 18.6914 19.9187C17.3145 11.8165 18.2227 5.70631 20.5371 4.18295ZM16.9482 48.3101C16.333 48.1092 15.7324 47.8916 15.1318 47.6572C12.0117 46.5356 8.4668 44.7611 5.90332 42.4343C4.42383 41.2624 3.42773 39.4545 3.14941 37.4289C3.14941 34.3655 7.77832 30.4483 14.458 27.7866C15.293 27.4518 16.1426 27.1505 16.9922 26.8659C17.9883 30.4985 19.1895 34.0642 20.5811 37.5126C19.1748 41.0113 17.959 44.6272 16.9482 48.3101ZM34.0283 64.7154C31.6113 67.2432 28.8135 69.252 25.7666 70.6247C24.1406 71.5119 22.2656 71.5956 20.5957 70.8423C18.2666 69.3022 17.2998 63.393 18.6182 55.4414C18.7793 54.5039 18.9551 53.5665 19.1602 52.6458C22.4414 53.4493 25.752 54.0017 29.1064 54.2863C31.04 57.4167 33.1641 60.4132 35.4346 63.2256C34.9658 63.7445 34.4971 64.2467 34.0283 64.7154ZM37.6172 60.6476C36.123 58.8061 34.6289 56.7638 33.1787 54.5709C34.585 54.6378 36.0352 54.6713 37.5 54.6713C39.0088 54.6713 40.4883 54.6378 41.9531 54.5541C40.6055 56.6801 39.1553 58.7057 37.6172 60.6476ZM56.7627 65.6696C56.6309 67.7119 55.752 69.6203 54.3457 70.9093C52.0166 72.4494 47.0508 70.4406 41.6895 65.1842C41.0742 64.5815 40.459 63.9286 39.8291 63.259C42.0703 60.4299 44.1357 57.4335 46.0107 54.2863C49.3652 53.9682 52.7051 53.3823 56.001 52.5286C56.1475 53.2149 56.2793 53.9013 56.3965 54.5709C57.1143 58.1868 57.2314 61.9533 56.7627 65.6696ZM59.4287 47.6739C59.0186 47.8246 58.6084 47.9753 58.1836 48.1092C57.1582 44.4598 55.8984 40.8942 54.4482 37.4289C55.8545 34.0139 57.041 30.4985 58.0371 26.8994C58.7988 27.1505 59.5312 27.4183 60.2344 27.6862C67.0605 30.3646 71.8506 34.3487 71.8506 37.3955C71.8506 40.6765 66.7383 44.9118 59.4287 47.6739ZM37.5 45.1629C41.2061 45.1629 44.209 41.7312 44.209 37.4959C44.209 33.2606 41.2061 29.8289 37.5 29.8289C33.7939 29.8289 30.791 33.2606 30.791 37.4959C30.791 41.7312 33.7939 45.1629 37.5 45.1629Z" fill="#00ADC9"/>
</svg>
