<svg width="75" height="75" viewBox="0 0 75 75" fill="none" xmlns="http://www.w3.org/2000/svg">
<path d="M37.5 0C27.5001 0 21.2499 8.3335 18.75 25C22.5 16.6665 26.8749 13.5415 31.875 15.625C34.7276 16.8135 36.7667 20.2632 39.0237 24.0811C42.7005 30.3013 46.9556 37.5 56.25 37.5C66.2499 37.5 72.5001 29.1665 75 12.5C71.25 20.8335 66.8751 23.9585 61.875 21.875C59.0224 20.6865 56.9833 17.2368 54.7263 13.4189C51.0495 7.19873 46.7944 0 37.5 0ZM18.75 37.5C8.7501 37.5 2.4999 45.8335 0 62.5C3.75 54.1665 8.1249 51.0415 13.125 53.125C15.9776 54.3135 18.0167 57.7632 20.2737 61.5811C23.9505 67.8013 28.2056 75 37.5 75C47.4999 75 53.7501 66.6665 56.25 50C52.5 58.3335 48.1251 61.4585 43.125 59.375C40.2724 58.1865 38.2333 54.7368 35.9763 50.9189C32.2995 44.6987 28.0444 37.5 18.75 37.5Z" fill="#00ADC9"/>
</svg>
