<svg width="75" height="75" viewBox="0 0 75 75" fill="none" xmlns="http://www.w3.org/2000/svg">
<path fill-rule="evenodd" clip-rule="evenodd" d="M0 0V75H75V0H0ZM57.0184 35.7955C57.7294 35.7977 58.5373 35.8362 59.1451 35.9036C61.62 36.1775 63.5473 37.2696 65.187 39.3267C66.0036 40.3514 66.2829 40.7998 66.2234 40.9916C66.1851 41.1153 65.6248 41.5258 63.8436 42.7352C62.0938 43.9234 61.53 44.2792 61.3992 44.2792C61.2665 44.2792 60.99 43.9882 60.5914 43.4293C59.8237 42.3533 59.04 41.8622 57.8283 41.6984C56.5253 41.5219 55.3565 41.942 54.7841 42.793C54.2948 43.5199 54.2209 44.69 54.6098 45.54C55.0603 46.5247 55.8759 47.069 59.0013 48.4708C62.606 50.0875 64.4327 51.1941 65.7631 52.5673C67.1957 54.0462 67.9216 55.7538 68.1445 58.169C68.2534 59.3462 68.1204 60.7415 67.791 61.8759C66.9833 64.6568 64.8037 66.693 61.6088 67.6514C60.7257 67.9162 59.9039 68.0744 59.091 68.1353C57.8502 68.2288 56.0739 68.1773 55.0048 68.018C52.3 67.6151 49.2467 66.0052 47.7243 64.1797C46.9769 63.2837 46.0227 61.8091 46.0227 61.5496C46.0227 61.4244 46.0834 61.3534 46.3237 61.1971C47.0363 60.7341 51.1201 58.3462 51.1993 58.3462C51.2472 58.3462 51.4605 58.6034 51.6732 58.9176C52.1549 59.6291 53.3396 60.852 53.9418 61.26C54.4338 61.5932 55.0629 61.8609 55.8097 62.0539C56.2375 62.163 56.464 62.1824 57.3973 62.1824C58.3509 62.1821 58.5466 62.1657 58.9732 62.0485C60.1016 61.7378 60.9825 61.0951 61.3558 60.3099C61.5194 59.9706 61.5226 59.9283 61.5226 59.1054V58.2522L61.322 57.8453C60.8362 56.8589 59.7894 56.1822 56.48 54.7159C54.9598 54.0424 53.098 53.0927 52.3711 52.6202C50.7123 51.5419 49.5626 50.3092 48.808 48.8003C48.0575 47.2997 47.9456 46.7412 47.9438 44.4848C47.9419 42.7186 47.9391 42.7403 48.2966 41.6129C48.621 40.5899 49.285 39.4471 50.018 38.6503C51.4811 37.0595 53.6185 36.0372 55.9069 35.8339C56.1996 35.8056 56.5919 35.7942 57.0184 35.7955ZM37.3331 37.5003C41.6931 37.5025 44.1931 37.5177 44.2332 37.5429C44.3088 37.5898 44.3182 37.9703 44.3182 40.3984V43.1996L39.9676 43.2155L35.6169 43.2313V55.6166C35.6169 62.4287 35.6032 68.0425 35.5843 68.092C35.5535 68.1754 35.2189 68.1818 32.3882 68.1818H29.2264L29.1937 68.0537C29.1726 67.9834 29.1572 62.3694 29.1568 55.5782L29.1558 43.2306L24.8052 43.2151L20.4545 43.1993V40.4312C20.4545 38.2358 20.4697 37.6478 20.5279 37.5894C20.5878 37.5276 22.8081 37.5116 32.3751 37.5021C34.2198 37.5003 35.8797 37.4994 37.3331 37.5003Z" fill="#00ADC9"/>
</svg>
