<svg width="75" height="75" viewBox="0 0 75 75" fill="none" xmlns="http://www.w3.org/2000/svg">
<path d="M25.8824 33.0554L27.4845 6.0023C27.4972 5.79061 27.58 5.58917 27.72 5.42964C27.8599 5.27011 28.0489 5.16156 28.2573 5.12105L54.3284 0.0179223C54.4895 -0.0136568 54.6559 -0.00337968 54.8118 0.0477676C54.9677 0.0989148 55.1078 0.189216 55.2187 0.310006C55.3296 0.430796 55.4075 0.578021 55.4451 0.737555C55.4826 0.89709 55.4784 1.06358 55.433 1.22105L50.558 18.1054C50.5127 18.2626 50.5086 18.4287 50.546 18.5879C50.5834 18.7472 50.661 18.8941 50.7715 19.0148C50.882 19.1355 51.0217 19.2259 51.1771 19.2773C51.3325 19.3288 51.4986 19.3395 51.6594 19.3086L59.1315 17.8711C59.3073 17.8367 59.4893 17.8523 59.6566 17.9161C59.824 17.9799 59.9701 18.0893 60.0783 18.2319C60.1865 18.3745 60.2525 18.5445 60.2688 18.7227C60.2851 18.9009 60.251 19.08 60.1703 19.2398L38.9242 61.5836L38.5393 62.1773C38.4566 62.3117 38.3406 62.4226 38.2025 62.4992C38.0643 62.5759 37.9088 62.6157 37.7508 62.6148C37.197 62.6148 36.6557 62.1398 36.7965 61.4617L40.2228 44.8961C40.2564 44.7338 40.2472 44.5656 40.1962 44.4079C40.1451 44.2503 40.0539 44.1086 39.9315 43.9967C39.8091 43.8849 39.6597 43.8067 39.4979 43.7699C39.3361 43.7331 39.1675 43.7388 39.0087 43.7867L34.5248 45.1461C34.366 45.1944 34.1974 45.2007 34.0355 45.1643C33.8736 45.1279 33.724 45.0501 33.6012 44.9386C33.4785 44.827 33.3869 44.6855 33.3354 44.528C33.2839 44.3704 33.2744 44.2022 33.3076 44.0398L35.4666 33.4929C35.4994 33.3355 35.4918 33.1723 35.4446 33.0185C35.3975 32.8647 35.3123 32.7253 35.1968 32.6132C35.0814 32.501 34.9395 32.4198 34.7843 32.3769C34.6291 32.334 34.4656 32.3309 34.3089 32.3679L27.0495 34.0429C26.9046 34.0762 26.754 34.0753 26.6095 34.0403C26.4651 34.0053 26.3307 33.9372 26.2172 33.8414C26.1036 33.7456 26.014 33.6247 25.9553 33.4883C25.8967 33.3518 25.8706 33.2037 25.8793 33.0554H25.8824ZM72.7428 8.28668L54.0374 11.6867L52.3352 17.5836L58.8342 16.3336C59.3379 16.2333 59.8602 16.2901 60.3304 16.4964C60.8006 16.7027 61.1959 17.0484 61.4626 17.4867C61.6891 17.8512 61.8178 18.2677 61.8364 18.6962C61.855 19.1247 61.763 19.5508 61.569 19.9336L40.3198 62.2805L40.2791 62.3586L40.2321 62.4305L39.8504 63.0242C39.6248 63.3772 39.314 63.6681 38.9467 63.8701C38.5793 64.0721 38.167 64.1788 37.7477 64.1805C37.3679 64.1784 36.9932 64.0927 36.6504 63.9296C36.3075 63.7665 36.0048 63.5299 35.7639 63.2367C35.5295 62.947 35.363 62.6087 35.2764 62.2464C35.1897 61.8842 35.1853 61.5072 35.2632 61.143L38.483 45.5773L34.9785 46.6398C34.4991 46.784 33.9877 46.7832 33.5088 46.6375C33.0299 46.4918 32.605 46.2077 32.2875 45.8211C32.0509 45.5325 31.8817 45.1947 31.7924 44.8325C31.7031 44.4703 31.6958 44.0927 31.7712 43.7273L33.7425 34.1023L27.4 35.5648C26.9706 35.663 26.523 35.6475 26.1015 35.5198C25.68 35.3921 25.2992 35.1566 24.9969 34.8367C24.7625 34.5863 24.5815 34.2911 24.4647 33.9688C24.348 33.6465 24.2981 33.3039 24.3179 32.9617L25.5351 12.4304L2.25506 8.27418C1.89637 8.20953 1.52666 8.24846 1.18936 8.38639C0.852059 8.52432 0.561177 8.75552 0.350884 9.05283C0.140592 9.35014 0.0196241 9.70121 0.00219198 10.0648C-0.0152402 10.4284 0.0715873 10.7894 0.252474 11.1054L36.1894 74.0336C36.3573 74.3281 36.6005 74.5728 36.8942 74.7426C37.1879 74.9124 37.5215 75.0013 37.8609 75C38.2002 74.9987 38.5331 74.9074 38.8255 74.7354C39.1179 74.5634 39.3593 74.3169 39.525 74.0211L74.7579 11.0992C74.9345 10.7826 75.0174 10.4224 74.997 10.0606C74.9765 9.69876 74.8535 9.35018 74.6424 9.05546C74.4312 8.76074 74.1405 8.53201 73.8042 8.3959C73.4679 8.25979 73.0998 8.22191 72.7428 8.28668Z" fill="#00ADC9"/>
</svg>
