<svg width="22" height="24" viewBox="0 0 22 24" fill="none" xmlns="http://www.w3.org/2000/svg">
<path d="M18.5986 3.46934C16.5527 1.23105 13.8281 0 10.9326 0C4.95605 0 0.0927734 5.30792 0.0927734 11.8309C0.0927734 13.9146 0.59082 15.9504 1.53809 17.7464L0 23.875L5.74707 22.2283C7.3291 23.1715 9.11133 23.6672 10.9277 23.6672H10.9326C16.9043 23.6672 21.875 18.3592 21.875 11.8362C21.875 8.67601 20.6445 5.70762 18.5986 3.46934V3.46934ZM10.9326 21.674C9.31152 21.674 7.72461 21.1997 6.34277 20.3044L6.01562 20.0912L2.60742 21.0665L3.51562 17.4373L3.30078 17.0642C2.39746 15.4974 1.92383 13.6908 1.92383 11.8309C1.92383 6.41108 5.9668 1.99847 10.9375 1.99847C13.3447 1.99847 15.6055 3.02168 17.3047 4.88158C19.0039 6.74149 20.0488 9.20893 20.0439 11.8362C20.0439 17.2614 15.8984 21.674 10.9326 21.674V21.674ZM15.874 14.309C15.6055 14.1598 14.2725 13.4457 14.0234 13.3497C13.7744 13.2485 13.5938 13.2005 13.4131 13.499C13.2324 13.7974 12.7148 14.4582 12.5537 14.6607C12.3975 14.8579 12.2363 14.8846 11.9678 14.7354C10.376 13.8667 9.33105 13.1845 8.28125 11.2181C8.00293 10.6958 8.55957 10.7331 9.07715 9.60329C9.16504 9.40611 9.12109 9.23558 9.05273 9.08636C8.98437 8.93714 8.44238 7.48225 8.21777 6.89071C7.99805 6.31515 7.77344 6.39509 7.60742 6.38443C7.45117 6.37377 7.27051 6.37377 7.08984 6.37377C6.90918 6.37377 6.61621 6.44838 6.36719 6.74149C6.11816 7.03993 5.41992 7.75405 5.41992 9.20893C5.41992 10.6638 6.3916 12.0707 6.52344 12.2679C6.66016 12.4651 8.43262 15.4495 11.1523 16.7338C12.8711 17.5439 13.5449 17.6131 14.4043 17.4746C14.9268 17.3893 16.0059 16.7605 16.2305 16.0677C16.4551 15.3749 16.4551 14.7833 16.3867 14.6607C16.3232 14.5275 16.1426 14.4529 15.874 14.309Z" fill="white"/>
</svg>
